<?xml version="1.0" standalone="no"?>
<!DOCTYPE svg PUBLIC "-//W3C//DTD SVG 20010904//EN"
 "http://www.w3.org/TR/2001/REC-SVG-20010904/DTD/svg10.dtd">
<svg version="1.0" xmlns="http://www.w3.org/2000/svg"
 width="100.000000pt" height="100.000000pt" viewBox="0 0 100.000000 100.000000"
 preserveAspectRatio="xMidYMid meet">

<g transform="translate(0.000000,100.000000) scale(0.100000,-0.100000)"
fill="#000000" stroke="none">
<path d="M360 814 c-73 -9 -187 -37 -228 -56 -46 -22 -92 -70 -92 -97 0 -9 7
-26 15 -38 13 -19 13 -25 -3 -52 -16 -29 -16 -33 0 -61 16 -28 16 -32 0 -60
-16 -28 -16 -32 0 -61 16 -27 16 -33 3 -52 -21 -31 -19 -51 12 -87 59 -70 202
-105 433 -105 231 0 374 35 433 105 31 36 33 56 12 87 -13 19 -13 25 3 52 16
29 16 33 0 61 -16 28 -16 32 0 60 16 28 16 32 0 61 -16 27 -16 33 -3 52 21 30
19 51 -10 85 -55 66 -192 102 -400 107 -77 2 -156 1 -175 -1z m320 -48 c152
-25 244 -68 238 -110 -4 -30 -86 -71 -185 -92 -69 -14 -83 -20 -83 -36 0 -17
5 -19 48 -13 26 4 80 18 121 32 82 26 104 24 99 -9 -4 -32 -84 -72 -185 -94
-69 -14 -83 -20 -83 -36 0 -17 5 -19 48 -13 26 4 80 18 121 32 82 26 104 24
99 -9 -4 -32 -84 -72 -185 -94 -69 -14 -83 -20 -83 -36 0 -17 5 -19 48 -13 26
4 80 18 121 32 80 26 101 25 101 -6 0 -86 -338 -146 -600 -106 -161 24 -250
67 -236 113 8 25 26 28 64 8 38 -19 153 -44 245 -52 73 -6 77 -6 77 13 0 18
-9 21 -72 27 -178 17 -318 68 -318 116 0 30 17 33 83 11 34 -11 81 -25 105
-30 41 -9 43 -8 40 12 -2 16 -13 23 -43 29 -98 20 -185 65 -185 98 0 30 17 33
83 11 100 -33 147 -41 147 -26 0 7 -15 16 -32 20 -18 3 -69 25 -113 48 -92 48
-105 72 -58 105 97 69 371 101 573 68z"/>
<path d="M478 735 c-3 -3 -48 -9 -102 -14 -98 -10 -148 -28 -170 -63 -8 -13
-8 -23 0 -35 12 -21 66 -50 107 -58 l27 -5 0 -90 c0 -77 3 -93 20 -110 45 -45
92 -15 100 61 3 39 9 54 20 54 12 0 16 -21 20 -113 4 -98 8 -116 24 -128 27
-19 52 -18 76 6 18 18 20 33 20 180 l0 160 28 6 c92 20 132 43 132 74 0 27
-35 52 -97 66 -56 13 -194 19 -205 9z m202 -48 c63 -17 59 -39 -10 -55 -90
-22 -89 -21 -92 -206 -3 -135 -5 -161 -18 -161 -12 0 -16 21 -20 113 -4 98 -8
116 -24 128 -48 35 -88 6 -96 -67 -3 -39 -9 -54 -20 -54 -12 0 -16 18 -18 90
-3 102 -12 117 -75 134 -23 6 -49 15 -57 21 -13 9 -13 11 0 20 24 16 82 30
130 31 25 1 59 5 75 9 46 12 175 10 225 -3z"/>
</g>
</svg>
