<?xml version="1.0" standalone="no"?>
<!DOCTYPE svg PUBLIC "-//W3C//DTD SVG 20010904//EN"
 "http://www.w3.org/TR/2001/REC-SVG-20010904/DTD/svg10.dtd">
<svg version="1.0" xmlns="http://www.w3.org/2000/svg"
 width="100.000000pt" height="100.000000pt" viewBox="0 0 100.000000 100.000000"
 preserveAspectRatio="xMidYMid meet">

<g transform="translate(0.000000,100.000000) scale(0.100000,-0.100000)"
fill="#000000" stroke="none">
<path d="M798 842 l-3 -137 -47 -3 c-46 -3 -48 -5 -48 -33 l0 -29 110 0 110 0
0 30 c0 29 -2 30 -45 30 l-45 0 0 64 0 64 75 27 c41 15 75 29 75 31 0 2 -40
24 -90 49 l-89 45 -3 -138z"/>
<path d="M293 675 c-26 -18 -32 -65 -8 -65 8 0 15 9 15 19 0 10 7 22 16 25 9
3 90 6 181 6 127 0 164 3 161 13 -4 9 -49 13 -174 15 -141 2 -173 0 -191 -13z"/>
<path d="M252 574 c-24 -17 -30 -62 -10 -82 37 -37 113 12 88 57 -9 17 -39 41
-52 41 -2 0 -14 -7 -26 -16z"/>
<path d="M270 432 c0 -10 6 -27 14 -38 13 -18 30 -19 260 -22 232 -3 245 -4
251 -23 8 -23 35 -26 35 -4 0 9 -11 27 -25 40 l-24 25 -236 0 c-228 0 -237 1
-242 20 -7 25 -33 26 -33 2z"/>
<path d="M116 275 c-11 -17 -26 -25 -45 -25 -33 0 -63 -42 -43 -62 16 -16 15
-55 0 -61 -21 -7 14 -62 37 -60 26 2 55 -15 55 -32 0 -26 59 -18 86 10 14 15
29 22 39 19 10 -4 22 1 30 12 17 22 20 54 5 54 -16 0 -11 47 5 54 14 5 14 9 0
36 -12 23 -22 30 -46 30 -19 0 -32 6 -36 18 -15 39 -63 44 -87 7z m76 -82 c26
-23 23 -59 -7 -79 -51 -33 -104 21 -71 71 19 29 51 32 78 8z"/>
<path d="M772 288 c-15 -15 -15 -61 0 -76 21 -21 66 -14 84 13 15 23 15 27 0
50 -18 27 -63 34 -84 13z"/>
<path d="M795 151 c-3 -10 -16 -22 -28 -25 -12 -3 -113 -6 -225 -6 -159 0
-203 -3 -200 -12 4 -10 59 -14 222 -16 l217 -2 24 24 c14 14 25 32 25 41 0 21
-27 19 -35 -4z"/>
</g>
</svg>
